<mxfile host="app.diagrams.net" modified="2024-06-10T12:14:07.450Z" agent="Mozilla/5.0 (Windows NT 10.0; Win64; x64) AppleWebKit/537.36 (KHTML, like Gecko) Chrome/125.0.0.0 Safari/537.36" etag="jMt5SiR7OJD5GXEvfnUL" version="24.5.2" type="github">
  <diagram id="prtHgNgQTEPvFCAcTncT" name="Page-1">
    <mxGraphModel dx="880" dy="434" grid="1" gridSize="10" guides="1" tooltips="1" connect="1" arrows="1" fold="1" page="1" pageScale="1" pageWidth="827" pageHeight="1169" math="0" shadow="0">
      <root>
        <mxCell id="0" />
        <mxCell id="1" parent="0" />
        <mxCell id="EO0dTkQEIgPO3RYnIdgG-23" style="edgeStyle=orthogonalEdgeStyle;rounded=0;orthogonalLoop=1;jettySize=auto;html=1;" edge="1" parent="1" source="EO0dTkQEIgPO3RYnIdgG-6">
          <mxGeometry relative="1" as="geometry">
            <mxPoint x="424" y="180" as="targetPoint" />
          </mxGeometry>
        </mxCell>
        <mxCell id="EO0dTkQEIgPO3RYnIdgG-24" style="edgeStyle=orthogonalEdgeStyle;rounded=0;orthogonalLoop=1;jettySize=auto;html=1;" edge="1" parent="1" source="EO0dTkQEIgPO3RYnIdgG-6">
          <mxGeometry relative="1" as="geometry">
            <mxPoint x="670" y="180" as="targetPoint" />
          </mxGeometry>
        </mxCell>
        <mxCell id="EO0dTkQEIgPO3RYnIdgG-25" style="edgeStyle=orthogonalEdgeStyle;rounded=0;orthogonalLoop=1;jettySize=auto;html=1;" edge="1" parent="1" source="EO0dTkQEIgPO3RYnIdgG-6">
          <mxGeometry relative="1" as="geometry">
            <mxPoint x="140" y="180" as="targetPoint" />
          </mxGeometry>
        </mxCell>
        <mxCell id="EO0dTkQEIgPO3RYnIdgG-6" value="iPhone" style="rounded=1;whiteSpace=wrap;html=1;" vertex="1" parent="1">
          <mxGeometry x="364" y="80" width="120" height="60" as="geometry" />
        </mxCell>
        <mxCell id="EO0dTkQEIgPO3RYnIdgG-7" value="&lt;div&gt;&amp;lt; interface&amp;gt;&lt;/div&gt;&lt;b&gt;Reprodutor Mu&lt;span style=&quot;background-color: initial;&quot;&gt;sical&lt;/span&gt;&lt;/b&gt;&lt;hr id=&quot;null&quot;&gt;&lt;div&gt;&lt;div style=&quot;text-align: justify;&quot;&gt;&lt;span style=&quot;background-color: initial;&quot;&gt;+tocar():void&lt;/span&gt;&lt;/div&gt;&lt;/div&gt;&lt;div style=&quot;text-align: justify;&quot;&gt;+pausar():void&lt;/div&gt;&lt;div style=&quot;text-align: justify;&quot;&gt;&lt;span style=&quot;background-color: initial;&quot;&gt;+selecionarMusica(String musica):void&lt;/span&gt;&lt;/div&gt;" style="rounded=1;whiteSpace=wrap;html=1;" vertex="1" parent="1">
          <mxGeometry x="20" y="190" width="220" height="110" as="geometry" />
        </mxCell>
        <mxCell id="EO0dTkQEIgPO3RYnIdgG-16" style="edgeStyle=orthogonalEdgeStyle;rounded=0;orthogonalLoop=1;jettySize=auto;html=1;exitX=0.5;exitY=0;exitDx=0;exitDy=0;" edge="1" parent="1" source="EO0dTkQEIgPO3RYnIdgG-14">
          <mxGeometry relative="1" as="geometry">
            <mxPoint x="424" y="190" as="targetPoint" />
          </mxGeometry>
        </mxCell>
        <mxCell id="EO0dTkQEIgPO3RYnIdgG-14" value="&lt;div style=&quot;&quot;&gt;&lt;span style=&quot;background-color: initial;&quot;&gt;&amp;lt;interface&amp;gt;&lt;/span&gt;&lt;/div&gt;&lt;div style=&quot;&quot;&gt;&lt;span style=&quot;background-color: initial;&quot;&gt;&lt;b&gt;AparelhoTelefonico&lt;/b&gt;&lt;/span&gt;&lt;/div&gt;&lt;div&gt;&lt;hr style=&quot;text-align: justify;&quot; id=&quot;null&quot;&gt;&lt;div style=&quot;text-align: justify;&quot;&gt;&lt;span style=&quot;background-color: initial;&quot;&gt;+ligar(String numero):void&lt;/span&gt;&lt;/div&gt;&lt;div style=&quot;text-align: justify;&quot;&gt;&lt;span style=&quot;background-color: initial;&quot;&gt;+atender():void&lt;/span&gt;&lt;/div&gt;&lt;div style=&quot;text-align: justify;&quot;&gt;&lt;span style=&quot;background-color: initial;&quot;&gt;+iniciarCorreioVoz():void&amp;nbsp;&lt;/span&gt;&lt;/div&gt;&lt;/div&gt;" style="rounded=1;whiteSpace=wrap;html=1;" vertex="1" parent="1">
          <mxGeometry x="310" y="190" width="184" height="110" as="geometry" />
        </mxCell>
        <mxCell id="EO0dTkQEIgPO3RYnIdgG-17" style="edgeStyle=orthogonalEdgeStyle;rounded=0;orthogonalLoop=1;jettySize=auto;html=1;exitX=0.5;exitY=0;exitDx=0;exitDy=0;" edge="1" parent="1" source="EO0dTkQEIgPO3RYnIdgG-15">
          <mxGeometry relative="1" as="geometry">
            <mxPoint x="670" y="190" as="targetPoint" />
          </mxGeometry>
        </mxCell>
        <mxCell id="EO0dTkQEIgPO3RYnIdgG-15" value="&lt;div style=&quot;&quot;&gt;&amp;lt;interface&amp;gt;&lt;/div&gt;&lt;div style=&quot;&quot;&gt;&lt;b&gt;NavegadorInternet&lt;/b&gt;&lt;/div&gt;&lt;div style=&quot;text-align: justify;&quot;&gt;&lt;hr id=&quot;null&quot;&gt;+exibirPagina(String url):void&lt;/div&gt;&lt;div style=&quot;text-align: justify;&quot;&gt;+adicionarNovaAba():void&lt;/div&gt;&lt;div style=&quot;text-align: justify;&quot;&gt;+atualizarPagina():void&lt;/div&gt;" style="rounded=1;whiteSpace=wrap;html=1;" vertex="1" parent="1">
          <mxGeometry x="550" y="190" width="190" height="110" as="geometry" />
        </mxCell>
      </root>
    </mxGraphModel>
  </diagram>
</mxfile>
